<svg xmlns="http://www.w3.org/2000/svg" xmlns:xlink="http://www.w3.org/1999/xlink" fill="none" version="1.1" width="24" height="24" viewBox="0 0 24 24"><clipPath id="master_svg0_614_99663"><rect x="0" y="0" width="24" height="24" rx="0"/></clipPath><g clip-path="url(#master_svg0_614_99663)" style="mix-blend-mode:passthrough"><rect x="0" y="0" width="24" height="24" rx="0" fill="#FFFFFF" fill-opacity="0"/><g><g style="mix-blend-mode:passthrough"><path d="M21,23L21,2L22,2L22,3L20,3L20,2L20.9252,2.379556L12.9252,21.8796Q12.8878,21.9707,12.8333,22.0528Q12.7789,22.1348,12.7095,22.2047Q12.6401,22.2746,12.5584,22.3296Q12.4767,22.3846,12.3858,22.4226Q12.2949,22.4606,12.1984,22.4801Q12.1019,22.4997,12.0034,22.5Q11.90489,22.5003,11.80823,22.4814Q11.71156,22.4626,11.62044,22.4252Q11.43479,22.349,11.29289,22.2071Q11.151,22.0652,11.07483,21.8796L3.07483,2.379556L4,2L4,3L2,3L2,2L3,2L3,23L1,23L1,2Q1,1.9015086,1.019215,1.80491Q1.03843,1.7083110000000001,1.076121,1.617317Q1.113812,1.526322,1.16853,1.44443Q1.223249,1.362537,1.2928929999999998,1.2928929999999998Q1.362537,1.223249,1.44443,1.16853Q1.526322,1.113812,1.617317,1.076121Q1.7083110000000001,1.03843,1.80491,1.019215Q1.9015086,1,2,1L4,1Q4.073980000000001,1,4.14715,1.010886Q4.22032,1.021771,4.2910900000000005,1.0433059999999998Q4.36187,1.06484,4.4287,1.096554Q4.49554,1.128268,4.556979999999999,1.1694710000000001Q4.61842,1.210675,4.67312,1.26047Q4.72783,1.310266,4.7746200000000005,1.36757Q4.821400000000001,1.424874,4.859249999999999,1.488438Q4.89709,1.5520019999999999,4.92517,1.620444L12.9252,21.1204L12,21.5L11.07483,21.1204L19.0748,1.620444Q19.1029,1.5520019999999999,19.1408,1.488438Q19.1786,1.424874,19.2254,1.36757Q19.2722,1.310266,19.3269,1.26047Q19.3816,1.210675,19.443,1.1694710000000001Q19.5045,1.128268,19.5713,1.096554Q19.6381,1.06484,19.7089,1.0433059999999998Q19.7797,1.021771,19.8528,1.010886Q19.926,1,20,1L22,1Q22.0985,1,22.1951,1.019215Q22.2917,1.03843,22.3827,1.076121Q22.4737,1.113812,22.5556,1.16853Q22.6375,1.223249,22.7071,1.2928929999999998Q22.7767,1.362537,22.8315,1.44443Q22.8862,1.526322,22.9239,1.617317Q22.9616,1.7083110000000001,22.9808,1.80491Q23,1.9015086,23,2L23,23L21,23Z" fill="#D7DAE0" fill-opacity="1"/></g></g></g></svg>